<?xml version="1.0" standalone="no"?>
<svg id="climate-chart0" version="1.1" xmlns="http://www.w3.org/2000/svg" width="100%" viewBox="0 0 728 590.0909090909091" preserveAspectRatio="xMinYMin meet" class="svg-content-responsive" style="font-size: 1em;font-family: Arial, sans-serif;font-style: normal;font-variant: normal;font-weight: normal;text-rendering: optimizelegibility;background-color: transparent;"><defs><clipPath id="rect-bottom0"><rect x="40" y="127.36363636363637" width="466" height="211.81818181818187"/></clipPath><clipPath id="rect-top0"><rect x="40" y="85" width="466" height="42.363636363636374"/></clipPath><clipPath id="clip-temp0"><path d="M40,127.36363636363637L82.36363636363637,127.36363636363637L124.72727272727273,127.36363636363637L167.0909090909091,127.36363636363637L209.45454545454547,127.36363636363637L251.81818181818184,127.36363636363637L294.1818181818182,127.36363636363637L336.54545454545456,127.36363636363637L378.90909090909093,127.36363636363637L421.2727272727273,127.36363636363637L463.6363636363637,127.36363636363637L506.00000000000006,127.36363636363637L506.00000000000006,272.4972181818182L463.6363636363637,251.7941090909091L421.2727272727273,227.9476181818182L378.90909090909093,214.07776363636367L336.54545454545456,210.16336363636367L294.1818181818182,205.7660181818182L251.81818181818184,197.50510909090912L209.45454545454547,200.6527272727273L167.0909090909091,216.21289090909093L124.72727272727273,242.24110909090913L82.36363636363637,264.7531454545455L40,280.0125272727273Z"/></clipPath><clipPath id="clip-temp20"><path d="M40,0L82.36363636363637,0L124.72727272727273,0L167.0909090909091,0L209.45454545454547,0L251.81818181818184,0L294.1818181818182,0L336.54545454545456,0L378.90909090909093,0L421.2727272727273,0L463.6363636363637,0L506.00000000000006,0L506.00000000000006,127.36363636363637L463.6363636363637,127.36363636363637L421.2727272727273,127.36363636363637L378.90909090909093,127.36363636363637L336.54545454545456,127.36363636363637L294.1818181818182,127.36363636363637L251.81818181818184,127.36363636363637L209.45454545454547,127.36363636363637L167.0909090909091,127.36363636363637L124.72727272727273,127.36363636363637L82.36363636363637,127.36363636363637L40,127.36363636363637Z"/></clipPath><clipPath id="clip-prec0"><path d="M40,127.36363636363637L82.36363636363637,127.36363636363637L124.72727272727273,127.36363636363637L167.0909090909091,127.36363636363637L209.45454545454547,127.36363636363637L251.81818181818184,127.36363636363637L294.1818181818182,127.36363636363637L336.54545454545456,127.36363636363637L378.90909090909093,127.36363636363637L421.2727272727273,127.36363636363637L463.6363636363637,127.36363636363637L506.00000000000006,127.36363636363637L506.00000000000006,313.303990909091L463.6363636363637,324.81419090909094L421.2727272727273,301.7874363636364L378.90909090909093,31.592163636363637L336.54545454545456,-145.5026636363637L294.1818181818182,-72.38090909090914L251.81818181818184,153.95105454545458L209.45454545454547,281.9146545454546L167.0909090909091,316.77780909090916L124.72727272727273,302.15388181818184L82.36363636363637,275.0665727272728L40,300.44874545454553Z"/></clipPath></defs><g class="grid" transform="translate(0,339.18181818181824)" shape-rendering="crispEdges" style="fill: none; stroke: rgb(211, 211, 211);"><g class="tick" transform="translate(40,0)" style="opacity: 1; font-size: 0.9em;"><line y2="-254.18181818181824" x2="0"/><text dy=".71em" y="3" x="0" style="text-anchor: middle; font-size: 10.8px;"/></g><g class="tick" transform="translate(82.36363636363637,0)" style="opacity: 1; font-size: 0.9em;"><line y2="-254.18181818181824" x2="0"/><text dy=".71em" y="3" x="0" style="text-anchor: middle; font-size: 10.8px;"/></g><g class="tick" transform="translate(124.72727272727273,0)" style="opacity: 1; font-size: 0.9em;"><line y2="-254.18181818181824" x2="0"/><text dy=".71em" y="3" x="0" style="text-anchor: middle; font-size: 10.8px;"/></g><g class="tick" transform="translate(167.0909090909091,0)" style="opacity: 1; font-size: 0.9em;"><line y2="-254.18181818181824" x2="0"/><text dy=".71em" y="3" x="0" style="text-anchor: middle; font-size: 10.8px;"/></g><g class="tick" transform="translate(209.45454545454547,0)" style="opacity: 1; font-size: 0.9em;"><line y2="-254.18181818181824" x2="0"/><text dy=".71em" y="3" x="0" style="text-anchor: middle; font-size: 10.8px;"/></g><g class="tick" transform="translate(251.81818181818184,0)" style="opacity: 1; font-size: 0.9em;"><line y2="-254.18181818181824" x2="0"/><text dy=".71em" y="3" x="0" style="text-anchor: middle; font-size: 10.8px;"/></g><g class="tick" transform="translate(294.1818181818182,0)" style="opacity: 1; font-size: 0.9em;"><line y2="-254.18181818181824" x2="0"/><text dy=".71em" y="3" x="0" style="text-anchor: middle; font-size: 10.8px;"/></g><g class="tick" transform="translate(336.54545454545456,0)" style="opacity: 1; font-size: 0.9em;"><line y2="-254.18181818181824" x2="0"/><text dy=".71em" y="3" x="0" style="text-anchor: middle; font-size: 10.8px;"/></g><g class="tick" transform="translate(378.90909090909093,0)" style="opacity: 1; font-size: 0.9em;"><line y2="-254.18181818181824" x2="0"/><text dy=".71em" y="3" x="0" style="text-anchor: middle; font-size: 10.8px;"/></g><g class="tick" transform="translate(421.2727272727273,0)" style="opacity: 1; font-size: 0.9em;"><line y2="-254.18181818181824" x2="0"/><text dy=".71em" y="3" x="0" style="text-anchor: middle; font-size: 10.8px;"/></g><g class="tick" transform="translate(463.6363636363637,0)" style="opacity: 1; font-size: 0.9em;"><line y2="-254.18181818181824" x2="0"/><text dy=".71em" y="3" x="0" style="text-anchor: middle; font-size: 10.8px;"/></g><g class="tick" transform="translate(506.00000000000006,0)" style="opacity: 1; font-size: 0.9em;"><line y2="-254.18181818181824" x2="0"/><text dy=".71em" y="3" x="0" style="text-anchor: middle; font-size: 10.8px;"/></g><path class="domain" d="M40,-254.18181818181824V0H506V-254.18181818181824"/></g><g class="grid" transform="translate(40,0)" shape-rendering="crispEdges" style="fill: none; stroke: rgb(211, 211, 211);"><g class="tick" transform="translate(0,339.18181818181824)" style="opacity: 1; font-size: 0.9em;"><line x2="466" y2="0"/><text dy=".32em" x="-3" y="0" style="text-anchor: end; font-size: 10.8px;"/></g><g class="tick" transform="translate(0,296.8181818181819)" style="opacity: 1; font-size: 0.9em;"><line x2="466" y2="0"/><text dy=".32em" x="-3" y="0" style="text-anchor: end; font-size: 10.8px;"/></g><g class="tick" transform="translate(0,254.4545454545455)" style="opacity: 1; font-size: 0.9em;"><line x2="466" y2="0"/><text dy=".32em" x="-3" y="0" style="text-anchor: end; font-size: 10.8px;"/></g><g class="tick" transform="translate(0,212.09090909090912)" style="opacity: 1; font-size: 0.9em;"><line x2="466" y2="0"/><text dy=".32em" x="-3" y="0" style="text-anchor: end; font-size: 10.8px;"/></g><g class="tick" transform="translate(0,169.72727272727275)" style="opacity: 1; font-size: 0.9em;"><line x2="466" y2="0"/><text dy=".32em" x="-3" y="0" style="text-anchor: end; font-size: 10.8px;"/></g><g class="tick" transform="translate(0,127.36363636363637)" style="opacity: 1; font-size: 0.9em;"><line x2="466" y2="0"/><text dy=".32em" x="-3" y="0" style="text-anchor: end; font-size: 10.8px;"/></g><path class="domain" d="M466,127.36363636363637H0V339.18181818181824H466"/></g><g class="grid" transform="translate(40,0)" shape-rendering="crispEdges" style="fill: none; stroke: rgb(211, 211, 211);"><g class="tick" transform="translate(0,85)" style="opacity: 1; font-size: 0.9em;"><line x2="466" y2="0"/><text dy=".32em" x="-3" y="0" style="text-anchor: end; font-size: 10.8px;"/></g><path class="domain" d="M466,85H0V127.36363636363637H466"/></g><path class="area" d="M40,339.18181818181824L82.36363636363637,339.18181818181824L124.72727272727273,339.18181818181824L167.0909090909091,339.18181818181824L209.45454545454547,339.18181818181824L251.81818181818184,339.18181818181824L294.1818181818182,339.18181818181824L336.54545454545456,339.18181818181824L378.90909090909093,339.18181818181824L421.2727272727273,339.18181818181824L463.6363636363637,339.18181818181824L506.00000000000006,339.18181818181824L506.00000000000006,272.4972181818182L463.6363636363637,251.7941090909091L421.2727272727273,227.9476181818182L378.90909090909093,214.07776363636367L336.54545454545456,210.16336363636367L294.1818181818182,205.7660181818182L251.81818181818184,197.50510909090912L209.45454545454547,200.6527272727273L167.0909090909091,216.21289090909093L124.72727272727273,242.24110909090913L82.36363636363637,264.7531454545455L40,280.0125272727273Z" clip-path="url(#clip-prec0)" fill="#ffe90f" stroke="none" style="opacity: 0.7;"/><path class="area" d="M40,339.18181818181824L82.36363636363637,339.18181818181824L124.72727272727273,339.18181818181824L167.0909090909091,339.18181818181824L209.45454545454547,339.18181818181824L251.81818181818184,339.18181818181824L294.1818181818182,339.18181818181824L336.54545454545456,339.18181818181824L378.90909090909093,339.18181818181824L421.2727272727273,339.18181818181824L463.6363636363637,339.18181818181824L506.00000000000006,339.18181818181824L506.00000000000006,313.303990909091L463.6363636363637,324.81419090909094L421.2727272727273,301.7874363636364L378.90909090909093,31.592163636363637L336.54545454545456,-145.5026636363637L294.1818181818182,-72.38090909090914L251.81818181818184,153.95105454545458L209.45454545454547,281.9146545454546L167.0909090909091,316.77780909090916L124.72727272727273,302.15388181818184L82.36363636363637,275.0665727272728L40,300.44874545454553Z" clip-path="url(#clip-temp0)" fill="#5983d5" stroke="none" style="opacity: 0.7;"/><path class="area" d="M40,127.36363636363637L82.36363636363637,127.36363636363637L124.72727272727273,127.36363636363637L167.0909090909091,127.36363636363637L209.45454545454547,127.36363636363637L251.81818181818184,127.36363636363637L294.1818181818182,127.36363636363637L336.54545454545456,127.36363636363637L378.90909090909093,127.36363636363637L421.2727272727273,127.36363636363637L463.6363636363637,127.36363636363637L506.00000000000006,127.36363636363637L506.00000000000006,145.95767181818184L463.6363636363637,147.10869181818185L421.2727272727273,144.80601636363636L378.90909090909093,117.7864890909091L336.54545454545456,100.07700636363637L294.1818181818182,107.38918181818183L251.81818181818184,130.0223781818182L209.45454545454547,142.8187381818182L167.0909090909091,146.30505363636365L124.72727272727273,144.8426609090909L82.36363636363637,142.13393000000002L40,144.6721472727273Z" clip-path="url(#clip-temp20)" fill="#043db7" stroke="none" style="opacity: 0.7;"/><path class="line" d="M40,144.6721472727273L82.36363636363637,142.13393000000002L124.72727272727273,144.8426609090909L167.0909090909091,146.30505363636365L209.45454545454547,142.8187381818182L251.81818181818184,130.0223781818182L294.1818181818182,107.38918181818183L336.54545454545456,100.07700636363637L378.90909090909093,117.7864890909091L421.2727272727273,144.80601636363636L463.6363636363637,147.10869181818185L506.00000000000006,145.95767181818184" clip-path="url(#rect-top0)" fill="none" stroke="#043db7" stroke-width="1.5"/><path class="line" d="M40,300.44874545454553L82.36363636363637,275.0665727272728L124.72727272727273,302.15388181818184L167.0909090909091,316.77780909090916L209.45454545454547,281.9146545454546L251.81818181818184,153.95105454545458L294.1818181818182,-72.38090909090914L336.54545454545456,-145.5026636363637L378.90909090909093,31.592163636363637L421.2727272727273,301.7874363636364L463.6363636363637,324.81419090909094L506.00000000000006,313.303990909091" clip-path="url(#rect-bottom0)" fill="none" stroke="#043db7" stroke-width="1.5"/><path id="tempLine0" class="line" d="M40,280.0125272727273L82.36363636363637,264.7531454545455L124.72727272727273,242.24110909090913L167.0909090909091,216.21289090909093L209.45454545454547,200.6527272727273L251.81818181818184,197.50510909090912L294.1818181818182,205.7660181818182L336.54545454545456,210.16336363636367L378.90909090909093,214.07776363636367L421.2727272727273,227.9476181818182L463.6363636363637,251.7941090909091L506.00000000000006,272.4972181818182" fill="none" stroke="#e61414" stroke-width="1.5"/><g class="x axis" transform="translate(0, 339.18181818181824)"><g class="tick" transform="translate(40,0)" style="opacity: 1; font-size: 0.9em;"><line y2="5" x2="0" style="stroke: black;"/><text dy=".71em" y="10" x="0" style="text-anchor: middle; font-size: 10.8px;">Jan</text></g><g class="tick" transform="translate(82.36363636363637,0)" style="opacity: 1; font-size: 0.9em;"><line y2="5" x2="0" style="stroke: black;"/><text dy=".71em" y="10" x="0" style="text-anchor: middle; font-size: 10.8px;">Feb</text></g><g class="tick" transform="translate(124.72727272727273,0)" style="opacity: 1; font-size: 0.9em;"><line y2="5" x2="0" style="stroke: black;"/><text dy=".71em" y="10" x="0" style="text-anchor: middle; font-size: 10.8px;">Mar</text></g><g class="tick" transform="translate(167.0909090909091,0)" style="opacity: 1; font-size: 0.9em;"><line y2="5" x2="0" style="stroke: black;"/><text dy=".71em" y="10" x="0" style="text-anchor: middle; font-size: 10.8px;">Apr</text></g><g class="tick" transform="translate(209.45454545454547,0)" style="opacity: 1; font-size: 0.9em;"><line y2="5" x2="0" style="stroke: black;"/><text dy=".71em" y="10" x="0" style="text-anchor: middle; font-size: 10.8px;">May</text></g><g class="tick" transform="translate(251.81818181818184,0)" style="opacity: 1; font-size: 0.9em;"><line y2="5" x2="0" style="stroke: black;"/><text dy=".71em" y="10" x="0" style="text-anchor: middle; font-size: 10.8px;">Jun</text></g><g class="tick" transform="translate(294.1818181818182,0)" style="opacity: 1; font-size: 0.9em;"><line y2="5" x2="0" style="stroke: black;"/><text dy=".71em" y="10" x="0" style="text-anchor: middle; font-size: 10.8px;">Jul</text></g><g class="tick" transform="translate(336.54545454545456,0)" style="opacity: 1; font-size: 0.9em;"><line y2="5" x2="0" style="stroke: black;"/><text dy=".71em" y="10" x="0" style="text-anchor: middle; font-size: 10.8px;">Aug</text></g><g class="tick" transform="translate(378.90909090909093,0)" style="opacity: 1; font-size: 0.9em;"><line y2="5" x2="0" style="stroke: black;"/><text dy=".71em" y="10" x="0" style="text-anchor: middle; font-size: 10.8px;">Sep</text></g><g class="tick" transform="translate(421.2727272727273,0)" style="opacity: 1; font-size: 0.9em;"><line y2="5" x2="0" style="stroke: black;"/><text dy=".71em" y="10" x="0" style="text-anchor: middle; font-size: 10.8px;">Oct</text></g><g class="tick" transform="translate(463.6363636363637,0)" style="opacity: 1; font-size: 0.9em;"><line y2="5" x2="0" style="stroke: black;"/><text dy=".71em" y="10" x="0" style="text-anchor: middle; font-size: 10.8px;">Nov</text></g><g class="tick" transform="translate(506.00000000000006,0)" style="opacity: 1; font-size: 0.9em;"><line y2="5" x2="0" style="stroke: black;"/><text dy=".71em" y="10" x="0" style="text-anchor: middle; font-size: 10.8px;">Dec</text></g><path class="domain" d="M40,5V0H506V5" shape-rendering="crispEdges" style="fill: none; stroke: black; stroke-width: 2px;"/></g><g class="y axis" transform="translate(40,0)" style="fill: rgb(230, 20, 20);"><g class="tick" transform="translate(0,339.18181818181824)" style="opacity: 1; font-size: 0.9em;"><line x2="-5" y2="0" style="stroke: black;"/><text dy=".32em" x="-8" y="0" style="text-anchor: end; font-size: 10.8px;">0</text></g><g class="tick" transform="translate(0,296.8181818181819)" style="opacity: 1; font-size: 0.9em;"><line x2="-5" y2="0" style="stroke: black;"/><text dy=".32em" x="-8" y="0" style="text-anchor: end; font-size: 10.8px;">10</text></g><g class="tick" transform="translate(0,254.4545454545455)" style="opacity: 1; font-size: 0.9em;"><line x2="-5" y2="0" style="stroke: black;"/><text dy=".32em" x="-8" y="0" style="text-anchor: end; font-size: 10.8px;">20</text></g><g class="tick" transform="translate(0,212.09090909090912)" style="opacity: 1; font-size: 0.9em;"><line x2="-5" y2="0" style="stroke: black;"/><text dy=".32em" x="-8" y="0" style="text-anchor: end; font-size: 10.8px;">30</text></g><g class="tick" transform="translate(0,169.72727272727275)" style="opacity: 1; font-size: 0.9em;"><line x2="-5" y2="0" style="stroke: black;"/><text dy=".32em" x="-8" y="0" style="text-anchor: end; font-size: 10.8px;">40</text></g><g class="tick" transform="translate(0,127.36363636363637)" style="opacity: 1; font-size: 0.9em;"><line x2="-5" y2="0" style="stroke: black;"/><text dy=".32em" x="-8" y="0" style="text-anchor: end; font-size: 10.8px;">50</text></g><path class="domain" d="M-5,127.36363636363637H0V339.18181818181824H-5" shape-rendering="crispEdges" style="fill: none; stroke: black; stroke-width: 2px;"/></g><g class="y axis" transform="translate(40,0)" style="fill: rgb(230, 20, 20);"><path class="domain" d="M-5,85H0V127.36363636363637H-5" shape-rendering="crispEdges" style="fill: none; stroke: black; stroke-width: 2px;"/></g><g class="y axis" transform="translate(506, 0)" style="fill: rgb(4, 61, 183);"><g class="tick" transform="translate(0,339.18181818181824)" style="opacity: 1; font-size: 0.9em;"><line x2="5" y2="0" style="stroke: black;"/><text dy=".32em" x="8" y="0" style="text-anchor: start; font-size: 10.8px;">0</text></g><g class="tick" transform="translate(0,296.8181818181819)" style="opacity: 1; font-size: 0.9em;"><line x2="5" y2="0" style="stroke: black;"/><text dy=".32em" x="8" y="0" style="text-anchor: start; font-size: 10.8px;">20</text></g><g class="tick" transform="translate(0,254.4545454545455)" style="opacity: 1; font-size: 0.9em;"><line x2="5" y2="0" style="stroke: black;"/><text dy=".32em" x="8" y="0" style="text-anchor: start; font-size: 10.8px;">40</text></g><g class="tick" transform="translate(0,212.09090909090912)" style="opacity: 1; font-size: 0.9em;"><line x2="5" y2="0" style="stroke: black;"/><text dy=".32em" x="8" y="0" style="text-anchor: start; font-size: 10.8px;">60</text></g><g class="tick" transform="translate(0,169.72727272727275)" style="opacity: 1; font-size: 0.9em;"><line x2="5" y2="0" style="stroke: black;"/><text dy=".32em" x="8" y="0" style="text-anchor: start; font-size: 10.8px;">80</text></g><g class="tick" transform="translate(0,127.36363636363637)" style="opacity: 1; font-size: 0.9em;"><line x2="5" y2="0" style="stroke: black;"/><text dy=".32em" x="8" y="0" style="text-anchor: start; font-size: 10.8px;">100</text></g><path class="domain" d="M5,127.36363636363637H0V339.18181818181824H5" shape-rendering="crispEdges" style="fill: none; stroke: black; stroke-width: 2px;"/></g><g class="y axis" transform="translate(506, 0)" style="fill: rgb(4, 61, 183);"><g class="tick" transform="translate(0,85)" style="opacity: 1; font-size: 0.9em;"><line x2="5" y2="0" style="stroke: black;"/><text dy=".32em" x="8" y="0" style="text-anchor: start; font-size: 10.8px;">300</text></g><path class="domain" d="M5,85H0V127.36363636363637H5" shape-rendering="crispEdges" style="fill: none; stroke: black; stroke-width: 2px;"/></g><text class="tick" text-anchor="start" x="40" y="75" fill="#e61414" style="font-size: 10.8px;">[°C]</text><text class="tick" text-anchor="end" x="506" y="75" fill="#043db7" style="font-size: 10.8px;">[mm]</text><text class="info" x="243" y="389.18181818181824" text-anchor="end" style="font-size: 15.6px;">Temperature Mean: 25.3 °C</text><text class="info" x="283" y="389.18181818181824" text-anchor="begin" style="font-size: 15.6px;">Precipitation Sum: 796.1 mm</text><line x1="620" y1="63" x2="620" y2="325" shape-rendering="crispEdges" style="stroke: rgb(211, 211, 211);"/><line x1="674" y1="63" x2="674" y2="325" shape-rendering="crispEdges" style="stroke: rgb(211, 211, 211);"/><text x="593" y="75" text-anchor="middle" style="font-weight: bold; font-size: 12px;">Month</text><text x="647" y="75" text-anchor="middle" style="font-weight: bold; font-size: 12px;">Temp</text><text x="701" y="75" text-anchor="middle" style="font-weight: bold; font-size: 12px;">Precip</text><text y="75" text-anchor="start" style="font-size: 12px;"><tspan id="month_c0" class="cell" x="578" y="95.83333333333333" fill="black" font-weight="normal" style="text-align: right; font-size: 1.2em; text-shadow: none;">Jan</tspan><tspan id="month_c1" class="cell" x="578" y="116.66666666666666" fill="black" font-weight="normal" style="text-align: right; font-size: 1.2em; text-shadow: none;">Feb</tspan><tspan id="month_c2" class="cell" x="578" y="137.5" fill="black" font-weight="normal" style="text-align: right; font-size: 1.2em; text-shadow: none;">Mar</tspan><tspan id="month_c3" class="cell" x="578" y="158.33333333333331" fill="black" font-weight="normal" style="text-align: right; font-size: 1.2em; text-shadow: none;">Apr</tspan><tspan id="month_c4" class="cell" x="578" y="179.16666666666666" fill="black" font-weight="normal" style="text-align: right; font-size: 1.2em; text-shadow: none;">May</tspan><tspan id="month_c5" class="cell" x="578" y="200" fill="black" font-weight="normal" style="text-align: right; font-size: 1.2em; text-shadow: none;">Jun</tspan><tspan id="month_c6" class="cell" x="578" y="220.83333333333331" fill="black" font-weight="normal" style="text-align: right; font-size: 1.2em; text-shadow: none;">Jul</tspan><tspan id="month_c7" class="cell" x="578" y="241.66666666666666" fill="black" font-weight="normal" style="text-align: right; font-size: 1.2em; text-shadow: none;">Aug</tspan><tspan id="month_c8" class="cell" x="578" y="262.5" fill="black" font-weight="normal" style="text-align: right; font-size: 1.2em; text-shadow: none;">Sep</tspan><tspan id="month_c9" class="cell" x="578" y="283.3333333333333" fill="black" font-weight="normal" style="text-align: right; font-size: 1.2em; text-shadow: none;">Oct</tspan><tspan id="month_c10" class="cell" x="578" y="304.16666666666663" fill="black" font-weight="normal" style="text-align: right; font-size: 1.2em; text-shadow: none;">Nov</tspan><tspan id="month_c11" class="cell" x="578" y="325" fill="black" font-weight="normal" style="text-align: right; font-size: 1.2em; text-shadow: none;">Dec</tspan></text><text y="75" text-anchor="end" style="font-size: 12px;"><tspan id="temp_c0" class="cell" x="664" y="95.83333333333333" fill="black" font-weight="normal" style="text-align: right; font-size: 1.2em; text-shadow: none;">14.0</tspan><tspan id="temp_c1" class="cell" x="664" y="116.66666666666666" fill="black" font-weight="normal" style="text-align: right; font-size: 1.2em; text-shadow: none;">17.6</tspan><tspan id="temp_c2" class="cell" x="664" y="137.5" fill="black" font-weight="normal" style="text-align: right; font-size: 1.2em; text-shadow: none;">22.9</tspan><tspan id="temp_c3" class="cell" x="664" y="158.33333333333331" fill="black" font-weight="normal" style="text-align: right; font-size: 1.2em; text-shadow: none;">29.0</tspan><tspan id="temp_c4" class="cell" x="664" y="179.16666666666666" fill="black" font-weight="normal" style="text-align: right; font-size: 1.2em; text-shadow: none;">32.7</tspan><tspan id="temp_c5" class="cell" x="664" y="200" fill="black" font-weight="normal" style="text-align: right; font-size: 1.2em; text-shadow: none;">33.4</tspan><tspan id="temp_c6" class="cell" x="664" y="220.83333333333331" fill="black" font-weight="normal" style="text-align: right; font-size: 1.2em; text-shadow: none;">31.5</tspan><tspan id="temp_c7" class="cell" x="664" y="241.66666666666666" fill="black" font-weight="normal" style="text-align: right; font-size: 1.2em; text-shadow: none;">30.5</tspan><tspan id="temp_c8" class="cell" x="664" y="262.5" fill="black" font-weight="normal" style="text-align: right; font-size: 1.2em; text-shadow: none;">29.5</tspan><tspan id="temp_c9" class="cell" x="664" y="283.3333333333333" fill="black" font-weight="normal" style="text-align: right; font-size: 1.2em; text-shadow: none;">26.3</tspan><tspan id="temp_c10" class="cell" x="664" y="304.16666666666663" fill="black" font-weight="normal" style="text-align: right; font-size: 1.2em; text-shadow: none;">20.6</tspan><tspan id="temp_c11" class="cell" x="664" y="325" fill="black" font-weight="normal" style="text-align: right; font-size: 1.2em; text-shadow: none;">15.7</tspan></text><text y="75" text-anchor="end" style="font-size: 12px;"><tspan id="prec_c0" class="cell" x="718" y="95.83333333333333" fill="black" font-weight="normal" style="text-align: right; font-size: 1.2em; text-shadow: none;">18.3</tspan><tspan id="prec_c1" class="cell" x="718" y="116.66666666666666" fill="black" font-weight="normal" style="text-align: right; font-size: 1.2em; text-shadow: none;">30.3</tspan><tspan id="prec_c2" class="cell" x="718" y="137.5" fill="black" font-weight="normal" style="text-align: right; font-size: 1.2em; text-shadow: none;">17.5</tspan><tspan id="prec_c3" class="cell" x="718" y="158.33333333333331" fill="black" font-weight="normal" style="text-align: right; font-size: 1.2em; text-shadow: none;">10.6</tspan><tspan id="prec_c4" class="cell" x="718" y="179.16666666666666" fill="black" font-weight="normal" style="text-align: right; font-size: 1.2em; text-shadow: none;">27.0</tspan><tspan id="prec_c5" class="cell" x="718" y="200" fill="black" font-weight="normal" style="text-align: right; font-size: 1.2em; text-shadow: none;">87.4</tspan><tspan id="prec_c6" class="cell" x="718" y="220.83333333333331" fill="black" font-weight="normal" style="text-align: right; font-size: 1.2em; text-shadow: none;">194.3</tspan><tspan id="prec_c7" class="cell" x="718" y="241.66666666666666" fill="black" font-weight="normal" style="text-align: right; font-size: 1.2em; text-shadow: none;">228.8</tspan><tspan id="prec_c8" class="cell" x="718" y="262.5" fill="black" font-weight="normal" style="text-align: right; font-size: 1.2em; text-shadow: none;">145.2</tspan><tspan id="prec_c9" class="cell" x="718" y="283.3333333333333" fill="black" font-weight="normal" style="text-align: right; font-size: 1.2em; text-shadow: none;">17.7</tspan><tspan id="prec_c10" class="cell" x="718" y="304.16666666666663" fill="black" font-weight="normal" style="text-align: right; font-size: 1.2em; text-shadow: none;">6.8</tspan><tspan id="prec_c11" class="cell" x="718" y="325" fill="black" font-weight="normal" style="text-align: right; font-size: 1.2em; text-shadow: none;">12.2</tspan></text><rect class="wl-availability-bar climate-chart0-wl-bar" id="avail_month_temp0" x="18.818181818181817" y="420.36363636363643" width="42.36363636363637" height="21.181818181818183" style="fill: rgb(249, 249, 249); opacity: 0.9; stroke: rgb(211, 211, 211); stroke-width: 1px;"/><rect class="wl-availability-bar climate-chart0-wl-bar" id="avail_month_temp1" x="61.18181818181819" y="420.36363636363643" width="42.36363636363637" height="21.181818181818183" style="fill: rgb(218, 218, 218); opacity: 0.9; stroke: rgb(211, 211, 211); stroke-width: 1px;"/><rect class="wl-availability-bar climate-chart0-wl-bar" id="avail_month_temp2" x="103.54545454545455" y="420.36363636363643" width="42.36363636363637" height="21.181818181818183" style="fill: rgb(218, 218, 218); opacity: 0.9; stroke: rgb(211, 211, 211); stroke-width: 1px;"/><rect class="wl-availability-bar climate-chart0-wl-bar" id="avail_month_temp3" x="145.9090909090909" y="420.36363636363643" width="42.36363636363637" height="21.181818181818183" style="fill: rgb(249, 249, 249); opacity: 0.9; stroke: rgb(211, 211, 211); stroke-width: 1px;"/><rect class="wl-availability-bar climate-chart0-wl-bar" id="avail_month_temp4" x="188.27272727272728" y="420.36363636363643" width="42.36363636363637" height="21.181818181818183" style="fill: rgb(249, 249, 249); opacity: 0.9; stroke: rgb(211, 211, 211); stroke-width: 1px;"/><rect class="wl-availability-bar climate-chart0-wl-bar" id="avail_month_temp5" x="230.63636363636365" y="420.36363636363643" width="42.36363636363637" height="21.181818181818183" style="fill: rgb(249, 249, 249); opacity: 0.9; stroke: rgb(211, 211, 211); stroke-width: 1px;"/><rect class="wl-availability-bar climate-chart0-wl-bar" id="avail_month_temp6" x="273" y="420.36363636363643" width="42.36363636363637" height="21.181818181818183" style="fill: rgb(249, 249, 249); opacity: 0.9; stroke: rgb(211, 211, 211); stroke-width: 1px;"/><rect class="wl-availability-bar climate-chart0-wl-bar" id="avail_month_temp7" x="315.3636363636364" y="420.36363636363643" width="42.36363636363637" height="21.181818181818183" style="fill: rgb(218, 218, 218); opacity: 0.9; stroke: rgb(211, 211, 211); stroke-width: 1px;"/><rect class="wl-availability-bar climate-chart0-wl-bar" id="avail_month_temp8" x="357.72727272727275" y="420.36363636363643" width="42.36363636363637" height="21.181818181818183" style="fill: rgb(218, 218, 218); opacity: 0.9; stroke: rgb(211, 211, 211); stroke-width: 1px;"/><rect class="wl-availability-bar climate-chart0-wl-bar" id="avail_month_temp9" x="400.0909090909091" y="420.36363636363643" width="42.36363636363637" height="21.181818181818183" style="fill: rgb(218, 218, 218); opacity: 0.9; stroke: rgb(211, 211, 211); stroke-width: 1px;"/><rect class="wl-availability-bar climate-chart0-wl-bar" id="avail_month_temp10" x="442.4545454545455" y="420.36363636363643" width="42.36363636363637" height="21.181818181818183" style="fill: rgb(218, 218, 218); opacity: 0.9; stroke: rgb(211, 211, 211); stroke-width: 1px;"/><rect class="wl-availability-bar climate-chart0-wl-bar" id="avail_month_temp11" x="484.81818181818187" y="420.36363636363643" width="42.36363636363637" height="21.181818181818183" style="fill: rgb(218, 218, 218); opacity: 0.9; stroke: rgb(211, 211, 211); stroke-width: 1px;"/><text class="awl-text climate-chart0-awl" text-anchor="start" font-size="1em" x="537.1818181818182" y="437.30909090909097" style="font-size: 12px;">Missing Temperature Data</text><rect class="wl-availability-bar climate-chart0-wl-bar" id="avail_month_prec0" x="18.818181818181817" y="462.7272727272728" width="42.36363636363637" height="21.181818181818183" style="fill: rgb(218, 218, 218); opacity: 0.9; stroke: rgb(211, 211, 211); stroke-width: 1px;"/><rect class="wl-availability-bar climate-chart0-wl-bar" id="avail_month_prec1" x="61.18181818181819" y="462.7272727272728" width="42.36363636363637" height="21.181818181818183" style="fill: rgb(218, 218, 218); opacity: 0.9; stroke: rgb(211, 211, 211); stroke-width: 1px;"/><rect class="wl-availability-bar climate-chart0-wl-bar" id="avail_month_prec2" x="103.54545454545455" y="462.7272727272728" width="42.36363636363637" height="21.181818181818183" style="fill: rgb(218, 218, 218); opacity: 0.9; stroke: rgb(211, 211, 211); stroke-width: 1px;"/><rect class="wl-availability-bar climate-chart0-wl-bar" id="avail_month_prec3" x="145.9090909090909" y="462.7272727272728" width="42.36363636363637" height="21.181818181818183" style="fill: rgb(218, 218, 218); opacity: 0.9; stroke: rgb(211, 211, 211); stroke-width: 1px;"/><rect class="wl-availability-bar climate-chart0-wl-bar" id="avail_month_prec4" x="188.27272727272728" y="462.7272727272728" width="42.36363636363637" height="21.181818181818183" style="fill: rgb(218, 218, 218); opacity: 0.9; stroke: rgb(211, 211, 211); stroke-width: 1px;"/><rect class="wl-availability-bar climate-chart0-wl-bar" id="avail_month_prec5" x="230.63636363636365" y="462.7272727272728" width="42.36363636363637" height="21.181818181818183" style="fill: rgb(218, 218, 218); opacity: 0.9; stroke: rgb(211, 211, 211); stroke-width: 1px;"/><rect class="wl-availability-bar climate-chart0-wl-bar" id="avail_month_prec6" x="273" y="462.7272727272728" width="42.36363636363637" height="21.181818181818183" style="fill: rgb(249, 249, 249); opacity: 0.9; stroke: rgb(211, 211, 211); stroke-width: 1px;"/><rect class="wl-availability-bar climate-chart0-wl-bar" id="avail_month_prec7" x="315.3636363636364" y="462.7272727272728" width="42.36363636363637" height="21.181818181818183" style="fill: rgb(218, 218, 218); opacity: 0.9; stroke: rgb(211, 211, 211); stroke-width: 1px;"/><rect class="wl-availability-bar climate-chart0-wl-bar" id="avail_month_prec8" x="357.72727272727275" y="462.7272727272728" width="42.36363636363637" height="21.181818181818183" style="fill: rgb(218, 218, 218); opacity: 0.9; stroke: rgb(211, 211, 211); stroke-width: 1px;"/><rect class="wl-availability-bar climate-chart0-wl-bar" id="avail_month_prec9" x="400.0909090909091" y="462.7272727272728" width="42.36363636363637" height="21.181818181818183" style="fill: rgb(218, 218, 218); opacity: 0.9; stroke: rgb(211, 211, 211); stroke-width: 1px;"/><rect class="wl-availability-bar climate-chart0-wl-bar" id="avail_month_prec10" x="442.4545454545455" y="462.7272727272728" width="42.36363636363637" height="21.181818181818183" style="fill: rgb(174, 174, 174); opacity: 0.9; stroke: rgb(211, 211, 211); stroke-width: 1px;"/><rect class="wl-availability-bar climate-chart0-wl-bar" id="avail_month_prec11" x="484.81818181818187" y="462.7272727272728" width="42.36363636363637" height="21.181818181818183" style="fill: rgb(174, 174, 174); opacity: 0.9; stroke: rgb(211, 211, 211); stroke-width: 1px;"/><text class="awl-text climate-chart0-awl" text-anchor="start" font-size="1em" x="537.1818181818182" y="479.67272727272734" style="font-size: 12px;">Missing Precipitation Data</text><rect class="awl-legend-cell climate-chart0-awl" x="18.818181818181817" y="505.0909090909092" width="42.36363636363637" height="21.181818181818183" style="fill: rgb(249, 249, 249); stroke: rgb(211, 211, 211);"/><rect class="awl-legend-cell climate-chart0-awl" x="61.18181818181819" y="505.0909090909092" width="42.36363636363637" height="21.181818181818183" style="fill: rgb(218, 218, 218); stroke: rgb(211, 211, 211);"/><rect class="awl-legend-cell climate-chart0-awl" x="103.54545454545455" y="505.0909090909092" width="42.36363636363637" height="21.181818181818183" style="fill: rgb(174, 174, 174); stroke: rgb(211, 211, 211);"/><rect class="awl-legend-cell climate-chart0-awl" x="145.9090909090909" y="505.0909090909092" width="42.36363636363637" height="21.181818181818183" style="fill: rgb(126, 126, 126); stroke: rgb(211, 211, 211);"/><rect class="awl-legend-cell climate-chart0-awl" x="188.27272727272728" y="505.0909090909092" width="42.36363636363637" height="21.181818181818183" style="fill: rgb(76, 76, 76); stroke: rgb(211, 211, 211);"/><rect class="awl-legend-cell climate-chart0-awl" x="230.63636363636365" y="505.0909090909092" width="42.36363636363637" height="21.181818181818183" style="fill: rgb(27, 27, 27); stroke: rgb(211, 211, 211);"/><text class="awl-text climate-chart0-awl" text-anchor="start" font-size="1em" x="283" y="517.8000000000001" style="font-size: 12px;">Percentage of Missing Data</text><text class="awl-text climate-chart0-awl" text-anchor="start" font-size="1em" x="13.818181818181817" y="547.4545454545455" style="font-size: 12px;">0%</text><text class="awl-text climate-chart0-awl" text-anchor="start" font-size="1em" x="261.81818181818187" y="547.4545454545455" style="font-size: 12px;">100%</text><g class="focus" id="focus0" visibility="hidden"><circle id="c10" r="4" fill="white" stroke="#e61414" style="stroke-width: 2;" transform="translate(167.0909090909091,216.21289090909093)"/><circle id="c20" r="4" fill="white" stroke="#043db7" style="stroke-width: 2;" transform="translate(167.0909090909091,316.77780909090916)"/></g><text id="climate-chart0-title" class="chart-header chart-title" x="364" y="20" text-anchor="middle" style="font-size: 18px;">New Delhi, India</text><text class="chart-header chart-subtitle" x="364" y="45" text-anchor="middle" style="font-size: 14.4px;">28.58N, 77.2E | Elevation: 216 m | Climate Class: Cfa | Years: 1990-2019</text><text class="footer source footer-climate-chart0" x="10" y="575.0909090909091" style="cursor: pointer; font-size: 10.8px; opacity: 0.4;"><tspan x="10">Data Source: Global Historical Climatology Network</tspan><tspan x="10" dy="1em">https://www.ncdc.noaa.gov/ghcnm/</tspan></text><text class="footer ref-url footer-climate-chart0" x="718" y="575.0909090909091" style="text-anchor: end; font-size: 10.8px; opacity: 0.4;">© ClimateCharts.net</text></svg>